<svg xmlns="http://www.w3.org/2000/svg" xmlns:xlink="http://www.w3.org/1999/xlink" version="1.1" viewBox="0 0 30 30">
    <path d="M 32 -31 l -33 33" stroke="currentColor" stroke-width=".25"></path><path d="M 32 -29 l -33 33" stroke="currentColor" stroke-width=".25"></path><path d="M 32 -27 l -33 33" stroke="currentColor" stroke-width=".25"></path><path d="M 32 -25 l -33 33" stroke="currentColor" stroke-width=".25"></path><path d="M 32 -23 l -33 33" stroke="currentColor" stroke-width=".25"></path><path d="M 32 -21 l -33 33" stroke="currentColor" stroke-width=".25"></path><path d="M 32 -19 l -33 33" stroke="currentColor" stroke-width=".25"></path><path d="M 32 -17 l -33 33" stroke="currentColor" stroke-width=".25"></path><path d="M 32 -15 l -33 33" stroke="currentColor" stroke-width=".25"></path><path d="M 32 -13 l -33 33" stroke="currentColor" stroke-width=".25"></path><path d="M 32 -11 l -33 33" stroke="currentColor" stroke-width=".25"></path><path d="M 32 -9 l -33 33" stroke="currentColor" stroke-width=".25"></path><path d="M 32 -7 l -33 33" stroke="currentColor" stroke-width=".25"></path><path d="M 32 -5 l -33 33" stroke="currentColor" stroke-width=".25"></path><path d="M 32 -3 l -33 33" stroke="currentColor" stroke-width=".25"></path><path d="M 32 -1 l -33 33" stroke="currentColor" stroke-width=".25"></path><path d="M 32 1 l -33 33" stroke="currentColor" stroke-width=".25"></path><path d="M 32 3 l -33 33" stroke="currentColor" stroke-width=".25"></path><path d="M 32 5 l -33 33" stroke="currentColor" stroke-width=".25"></path><path d="M 32 7 l -33 33" stroke="currentColor" stroke-width=".25"></path><path d="M 32 9 l -33 33" stroke="currentColor" stroke-width=".25"></path><path d="M 32 11 l -33 33" stroke="currentColor" stroke-width=".25"></path><path d="M 32 13 l -33 33" stroke="currentColor" stroke-width=".25"></path><path d="M 32 15 l -33 33" stroke="currentColor" stroke-width=".25"></path><path d="M 32 17 l -33 33" stroke="currentColor" stroke-width=".25"></path><path d="M 32 19 l -33 33" stroke="currentColor" stroke-width=".25"></path><path d="M 32 21 l -33 33" stroke="currentColor" stroke-width=".25"></path><path d="M 32 23 l -33 33" stroke="currentColor" stroke-width=".25"></path><path d="M 32 25 l -33 33" stroke="currentColor" stroke-width=".25"></path><path d="M 32 27 l -33 33" stroke="currentColor" stroke-width=".25"></path><path d="M 32 29 l -33 33" stroke="currentColor" stroke-width=".25"></path>
</svg>